PathFileType	4	(X/Y/Z)	C:\Users\WrightLab\Desktop\Jo\P1.2boxCal1-Unnamed.trc
DataRate	CameraRate	NumFrames	NumMarkers	Units	OrigDataRate	OrigDataStartFrame	OrigNumFrames
100.00	100.00	       30	0	mm	100.00	1	       827
Frame#	Time	
		

1	0.000	-670.58624	349.84375	1000.37714	89.39095	323.05511	-464.66638	-190.65236	360.53195	1306.66638	-213.21625	355.06110	982.98517	-655.67957	354.20621	1314.29480	-413.55923	312.06909	-187.05093				51.02494	332.24310	-141.50951	-383.60950	306.69690	-523.90289	
2	0.010	-670.81024	349.65460	1000.43243	89.55500	323.12024	-464.53253	-190.98143	360.39142	1306.81555	-213.21613	355.07886	982.99469	-655.76135	354.25034	1314.65234	-413.41428	312.01215	-186.99072				50.86213	332.48755	-141.61639	-383.58112	306.69135	-523.90027	
3	0.020	-670.81763	349.62738	1000.41486	89.63257	323.14520	-464.48315	-190.81874	360.66061	1306.60034	-213.46513	354.91235	983.13208	-655.50305	354.45563	1314.36987	-413.50430	311.91306	-187.06088				51.04147	332.25851	-141.50406	-383.14407	306.40100	-523.54291	
4	0.030	-670.62146	349.82214	1000.36096	89.49673	323.18661	-464.36636	-190.95433	360.38806	1306.81653	-213.19812	355.06485	982.99432	-655.58777	354.45447	1314.71460	-413.49518	311.91345	-187.06169				51.06049	332.43668	-141.57825	-383.47781	306.35684	-523.90125	
5	0.040	-670.63074	349.71613	1000.80566	89.45181	323.15259	-464.44171	-190.99828	360.40216	1306.81799	-213.32417	355.21451	982.96332	-655.58209	354.31433	1313.97314	-413.49246	311.91293	-187.06355				51.12891	332.27319	-141.42780	-383.15936	306.39810	-523.54828	
6	0.050	-670.64166	349.71283	1000.80499	89.62283	323.08542	-464.62457	-190.92110	360.33252	1306.68311	-213.34409	355.22385	982.97577	-655.52039	354.26083	1313.72192	-413.55881	312.08136	-187.04630				51.05895	332.44034	-141.58986	-383.17291	306.40445	-523.54712	
7	0.060	-670.64417	349.73685	1000.81506	89.53913	323.16998	-464.41168	-190.90164	360.32434	1306.69702	-213.59088	355.04633	983.10034	-655.39105	354.44241	1313.81580	-413.39996	311.90802	-187.01353				50.86163	332.48962	-141.60112	-383.17108	306.39868	-523.55048	
8	0.070	-670.80652	349.68097	1001.06921	89.56879	323.11472	-464.54752	-190.91440	360.31546	1306.69702	-213.33936	355.22150	982.97241	-655.74292	354.36337	1314.26318	-413.49280	311.91080	-187.06323				50.84427	332.48685	-141.60669	-383.16257	306.39978	-523.54785	
9	0.080	-670.57635	349.89261	1000.98120	89.46803	323.07840	-464.62097	-190.89346	360.34460	1306.70508	-213.21281	355.04202	982.96832	-655.51636	354.52679	1314.07507	-413.48993	311.91879	-187.06178				51.02583	332.22662	-141.49815	-383.60336	306.69470	-523.90302	
10	0.090	-670.57349	349.88812	1000.98108	89.60081	323.17239	-464.41400	-190.97299	360.38617	1306.81055	-213.21373	355.08212	983.00354	-655.50439	354.44101	1314.36353	-413.48630	311.91928	-187.05937				51.05062	332.10522	-141.35728	-383.48141	306.36322	-523.89783	
11	0.100	-670.80859	349.80765	1000.63593	89.60766	323.06271	-464.67679	-190.94165	360.38864	1306.79834	-213.19498	355.08582	982.99353	-655.97809	354.21896	1314.62549	-413.48926	311.92813	-187.05513				51.05897	332.43719	-141.57298	-383.16168	306.41217	-523.53949	
12	0.110	-670.59802	349.84180	1000.37982	89.55114	323.12607	-464.51810	-190.69579	360.54343	1306.67065	-213.22354	355.06958	982.98126	-655.58875	354.31873	1313.97571	-413.65240	311.98993	-186.93484				50.86776	332.47363	-141.59845	-383.74088	306.59003	-524.08118	
13	0.120	-670.80701	349.65070	1000.42535	89.57719	323.06290	-464.67236	-190.89159	360.31772	1306.69861	-213.35138	355.19315	982.96106	-655.76587	354.34097	1314.25208	-413.48785	311.91940	-187.05963				50.86219	332.48633	-141.62096	-383.17285	306.40836	-523.54449	
14	0.130	-670.57916	349.89047	1000.98260	89.55973	323.15009	-464.46188	-190.90446	360.32321	1306.69312	-213.33774	355.22052	982.96490	-655.75977	354.37445	1314.26416	-413.40970	312.01096	-186.98923				50.84504	332.46002	-141.61702	-383.48752	306.35086	-523.90741	
15	0.140	-670.62408	349.73251	1000.81171	89.48600	323.10947	-464.54919	-190.96259	360.40948	1306.82690	-213.22871	355.07462	982.99341	-655.38861	354.38779	1314.11243	-413.54953	312.07565	-187.04839				51.25484	332.05450	-141.32901	-383.18494	306.40750	-523.54779	
16	0.150	-670.78900	349.79868	1000.63629	89.51982	323.07129	-464.64471	-190.95851	360.36899	1306.80396	-213.21370	355.06702	982.98169	-655.60944	354.48343	1314.72034	-413.50385	311.90863	-187.06554				51.08032	332.43915	-141.58824	-383.73438	306.58603	-524.08234	
17	0.160	-670.81409	349.68607	1001.07343	89.51024	323.13718	-464.48624	-190.88126	360.32983	1306.69104	-213.32538	355.21533	982.97076	-655.75061	354.35065	1314.26038	-413.48941	311.91885	-187.06042				51.04550	332.44287	-141.59464	-383.60236	306.69125	-523.90509	
18	0.170	-670.63342	349.71725	1000.80603	89.51852	323.15366	-464.44794	-190.66640	360.53189	1306.66821	-213.19362	355.06171	982.98865	-655.66852	354.29248	1314.00623	-413.55188	312.08621	-187.04166				51.04259	332.10565	-141.33752	-383.60675	306.70844	-523.89465	
19	0.180	-670.80682	349.65533	1000.42664	89.62040	323.06458	-464.67401	-191.01640	360.38730	1306.81519	-213.20131	355.07590	983.00073	-655.61108	354.46835	1314.71448	-413.45941	312.18219	-187.33092				50.85516	332.48550	-141.61916	-383.70886	306.60434	-524.06458	
20	0.190	-670.54895	349.98187	1000.53625	89.53123	323.14557	-464.46887	-190.97046	360.37674	1306.81360	-213.21886	355.30334	983.17230	-655.60229	354.55008	1314.31555	-413.48676	311.91342	-187.06323				50.85218	332.47958	-141.61728	-383.18506	306.40393	-523.55017	
21	0.200	-670.60370	349.82034	1000.36664	89.63794	323.22369	-464.29645	-190.97652	360.37201	1306.80469	-213.23190	355.06665	982.98169	-655.58960	354.58496	1314.32886	-413.49911	311.91199	-187.06177				51.07126	332.44650	-141.58736	-383.16168	306.40277	-523.54572	
22	0.210	-670.78748	349.80286	1000.63812	89.60596	323.08591	-464.62119	-190.69855	360.52405	1306.66492	-213.45790	354.90546	983.12695	-655.73871	354.36560	1314.26294	-413.51663	311.95840	-186.88049				50.84936	332.47845	-141.60638	-383.51324	306.35870	-523.90796	
23	0.220	-670.55817	349.98563	1000.53827	89.61263	323.16913	-464.42343	-191.05464	360.51459	1306.74512	-213.29247	354.92999	982.77234	-655.77368	354.36066	1314.25842	-413.40271	312.00983	-186.98814				51.06180	332.43991	-141.59819	-383.73114	306.59079	-524.07849	
24	0.230	-670.58130	349.83621	1000.37518	89.56831	323.05225	-464.69656	-190.99506	360.38574	1306.80493	-213.19153	355.04547	982.97522	-655.51447	354.42862	1314.35620	-413.55530	312.07632	-187.05280				50.85476	332.48956	-141.62315	-383.16779	306.40649	-523.54462	
25	0.240	-670.80823	349.79218	1000.62927	89.64534	323.13159	-464.51733	-190.95349	360.38644	1306.81470	-213.23872	355.05969	982.99951	-655.59900	354.19070	1314.36047	-413.55630	312.07617	-187.04163				50.87196	332.46994	-141.60817	-383.16910	306.41705	-523.53790	
26	0.250	-670.82092	349.64462	1000.42273	89.54779	323.12506	-464.52002	-190.99104	360.37015	1306.81140	-213.22539	355.06375	982.98206	-655.75610	354.26123	1314.65625	-413.49683	311.92258	-187.05838				51.04265	332.43420	-141.59772	-383.49716	306.35901	-523.90417	
27	0.260	-670.59741	349.82480	1000.36652	89.62701	323.20065	-464.35001	-190.93907	360.37665	1306.80591	-213.23169	355.06686	982.98389	-655.59668	354.46191	1314.71594	-413.50232	311.91028	-187.06297				50.91671	332.31491	-141.44884	-383.17505	306.42029	-523.53711	
28	0.270	-670.53607	350.00143	1000.54504	89.63722	323.12216	-464.53873	-190.96802	360.39554	1306.81604	-213.20831	355.07492	982.99640	-655.38843	354.35742	1314.10303	-413.50455	311.90686	-187.06747				51.05513	332.43475	-141.58330	-383.16043	306.39734	-523.54901	
29	0.280	-670.57397	349.89508	1000.98260	89.59729	323.08130	-464.63104	-190.70653	360.55310	1306.67065	-213.18488	355.07309	983.00385	-655.51831	354.19226	1314.01721	-413.54810	312.08292	-186.86430				51.04400	332.09320	-141.35281	-383.14566	306.39920	-523.54449	
30	0.290	-670.54309	349.99860	1000.54169	89.49586	323.10526	-464.56052	-190.95041	360.39233	1306.80725	-213.48651	354.91040	983.13440	-655.76068	354.26382	1314.65540	-413.36990	311.86670	-187.01254				50.85857	332.48904	-141.61150	-383.19736	306.42368	-523.53986	
